# xmcd
# 
# Track frame offsets:
#     150
#     14888
#     28840
#     43766
#     56685
#     71526
#     87538
#     106725
#     121371
#     135265
#     154834
#     167720
#     180884
#     188090
# 
# Disc length: 2819
# 
# Revision: 1
# Processed by: cddbd v1.5.2PL0 Copyright (c) Steve Scherf et al.
# Submitted via: BonkEnc v1.0.8
# 
DISCID=b90b010e
DTITLE=Cowboy Rodrigo e amigos - Cowboy Rodrigo no Batidão da Viola
DYEAR=2002
DGENRE=Country
TTITLE0=Bate a Bota no chão
TTITLE1=Vá pro inferno com o seu amor (ao vivo)
TTITLE2=Sozinho na noite
TTITLE3=Canta Moçada
TTITLE4=Coração de Vidro
TTITLE5=Pinga na Garganta
TTITLE6=Amo Você (Adoro Yo)
TTITLE7=Porque
TTITLE8=Raimunda (ao vivo)
TTITLE9=Quando bate a paixão
TTITLE10=Chão Preto
TTITLE11=Encanto da Natureza
TTITLE12=Ave Maria - Oração: A luz de Nossa Senhora
TTITLE13=Nossa Senhora
EXTD=
EXTT0=
EXTT1=
EXTT2=
EXTT3=
EXTT4=
EXTT5=
EXTT6=
EXTT7=
EXTT8=
EXTT9=
EXTT10=
EXTT11=
EXTT12=
EXTT13=
PLAYORDER=
